<?xml version="1.0" encoding="UTF-8" standalone="no"?>
<!-- Created with Inkscape (http://www.inkscape.org/) -->

<svg
   xmlns:dc="http://purl.org/dc/elements/1.1/"
   xmlns:cc="http://creativecommons.org/ns#"
   xmlns:rdf="http://www.w3.org/1999/02/22-rdf-syntax-ns#"
   xmlns:svg="http://www.w3.org/2000/svg"
   xmlns="http://www.w3.org/2000/svg"
   xmlns:sodipodi="http://sodipodi.sourceforge.net/DTD/sodipodi-0.dtd"
   xmlns:inkscape="http://www.inkscape.org/namespaces/inkscape"
   width="210mm"
   height="297mm"
   viewBox="0 0 210 297"
   version="1.1"
   id="svg8"
   inkscape:version="0.92.2 (5c3e80d, 2017-08-06)"
   sodipodi:docname="KOIcode_logo.svg">
  <defs
     id="defs2" />
  <sodipodi:namedview
     id="base"
     pagecolor="#ffffff"
     bordercolor="#666666"
     borderopacity="1.0"
     inkscape:pageopacity="0.0"
     inkscape:pageshadow="2"
     inkscape:zoom="0.49497475"
     inkscape:cx="962.20163"
     inkscape:cy="761.56484"
     inkscape:document-units="mm"
     inkscape:current-layer="layer1"
     showgrid="false"
     inkscape:window-width="1920"
     inkscape:window-height="1001"
     inkscape:window-x="-9"
     inkscape:window-y="-9"
     inkscape:window-maximized="1" />
  <metadata
     id="metadata5">
    <rdf:RDF>
      <cc:Work
         rdf:about="">
        <dc:format>image/svg+xml</dc:format>
        <dc:type
           rdf:resource="http://purl.org/dc/dcmitype/StillImage" />
        <dc:title></dc:title>
      </cc:Work>
    </rdf:RDF>
  </metadata>
  <g
     inkscape:label="Layer 1"
     inkscape:groupmode="layer"
     id="layer1">
    <circle
       style="opacity:1;fill:#212529;fill-opacity:1;stroke:none;stroke-width:1.46722376;stroke-miterlimit:4;stroke-dasharray:none;stroke-dashoffset:0;stroke-opacity:1"
       id="path4801"
       cx="112.18625"
       cy="64.18045"
       r="110.48854" />
    <g
       id="g4823"
       transform="matrix(4.6529801,0,0,4.6529801,-388.87887,-426.35864)">
      <g
         transform="translate(0.52916667,0.6614583)"
         id="g4781">
        <path
           inkscape:connector-curvature="0"
           style="fill:#333333;fill-opacity:1;stroke:none;stroke-width:0.065;stroke-linecap:butt;stroke-linejoin:miter;stroke-miterlimit:4;stroke-dasharray:none;stroke-opacity:1"
           d="m 97.978514,98.27307 a 0.15355282,0.15355282 0 0 0 -0.153479,0.153479 0.15355282,0.15355282 0 0 0 5.29e-4,0.0088 c -1.404186,0.415357 -2.794664,1.603521 -2.794661,1.603521 -2.973377,2.55577 -1.603521,4.69429 -1.603521,4.69429 0.12528,-1.65373 1.912543,-2.06292 1.912543,-2.06292 2.012876,-0.48443 2.898532,-1.30328 2.898532,-1.30328 0.340905,-0.26988 0.602636,-0.53918 0.809255,-0.79685 a 0.15355283,0.15355283 0 0 0 0.08268,0.0243 0.15355283,0.15355283 0 0 0 0.153477,-0.154 0.15355283,0.15355283 0 0 0 -0.05323,-0.11575 c 0.575699,-0.840021 0.544672,-1.496558 0.544672,-1.496558 -0.02506,-0.451017 -0.785482,-0.517798 -0.785482,-0.517798 -0.278202,-0.03895 -0.573757,-0.01304 -0.872816,0.05064 a 0.15355282,0.15355282 0 0 0 -0.138493,-0.08785 z"
           id="path4517" />
        <path
           style="fill:#333333;fill-opacity:1;stroke:none;stroke-width:0.065;stroke-linecap:butt;stroke-linejoin:miter;stroke-miterlimit:4;stroke-dasharray:none;stroke-opacity:1"
           d="m 96.206751,98.999538 c -0.891786,-1.34064 -2.545432,-0.03544 -2.545432,-0.03544 0,0 0.685082,0.566965 1.216611,0.543342 0,0 0.283479,0.07678 1.328821,-0.507902 z"
           id="path4519"
           inkscape:connector-curvature="0" />
        <path
           style="fill:#333333;fill-opacity:1;stroke:none;stroke-width:0.065;stroke-linecap:butt;stroke-linejoin:miter;stroke-miterlimit:4;stroke-dasharray:none;stroke-opacity:1"
           d="m 92.976387,104.29867 c 0,0 0.225507,0.99391 1.394811,1.72055 0,0 0.977206,0.49278 0.56795,2.48059 0,0 -0.158692,-0.50948 -1.002261,-0.91874 0,0 -0.776752,-0.30067 -1.002261,-0.70993 0,0 -0.618061,-0.63477 0.04176,-2.57247 z"
           id="path4521"
           inkscape:connector-curvature="0" />
        <path
           style="fill:#333333;fill-opacity:1;stroke:none;stroke-width:0.065;stroke-linecap:butt;stroke-linejoin:miter;stroke-miterlimit:4;stroke-dasharray:none;stroke-opacity:1"
           d="m 94.60626,103.20452 c 0,0 0.767762,0.54925 -0.141743,1.62412 0,0 -0.466563,-0.49019 -0.265763,-0.92132 0,0 0.354353,-0.45475 0.407506,-0.7028 z"
           id="path4534"
           inkscape:connector-curvature="0" />
        <path
           style="fill:#333333;fill-opacity:1;stroke:none;stroke-width:0.065;stroke-linecap:butt;stroke-linejoin:miter;stroke-miterlimit:4;stroke-dasharray:none;stroke-opacity:1"
           d="m 93.252008,101.96006 c 0,0 -0.860274,-0.42596 -1.31129,1.05655 0,0 1.039843,0.30903 1.31129,-1.05655 z"
           id="path4536"
           inkscape:connector-curvature="0" />
        <path
           style="fill:#333333;fill-opacity:1;stroke:none;stroke-width:0.065;stroke-linecap:butt;stroke-linejoin:miter;stroke-miterlimit:4;stroke-dasharray:none;stroke-opacity:1"
           d="m 98.196494,101.60509 c 0,0 1.081606,0.8561 -0.726638,2.27597 0,0 -0.559595,-1.06908 -0.07934,-1.50339 0,0 0.689046,-0.59301 0.805978,-0.77258 z"
           id="path4538"
           inkscape:connector-curvature="0" />
        <path
           style="opacity:0.12000002;fill:#000000;fill-opacity:1;stroke:none;stroke-width:0.065;stroke-linecap:butt;stroke-linejoin:miter;stroke-miterlimit:4;stroke-dasharray:none;stroke-opacity:1"
           d="m 97.978514,98.273053 a 0.15355283,0.15355283 0 0 0 -0.153479,0.15348 0.15355283,0.15355283 0 0 0 5.18e-4,0.0088 c -1.404186,0.415356 -2.794664,1.603517 -2.794661,1.603517 -2.973377,2.55578 -1.603521,4.6943 -1.603521,4.6943 2.89e-4,-0.004 0.0012,-0.007 0.0016,-0.0109 -0.241134,-0.73719 -0.418531,-2.39614 1.78077,-4.28656 0,0 2.288495,-1.962956 3.958933,-1.729096 0,0 0.37165,0.0359 0.60358,0.211357 0.002,-0.04605 0.003,-0.08992 0.003,-0.08992 -0.0251,-0.451019 -0.785483,-0.5178 -0.785483,-0.5178 -0.278201,-0.03895 -0.573757,-0.01304 -0.872815,0.05064 a 0.15355283,0.15355283 0 0 0 -0.138494,-0.08785 z"
           id="path4517-9"
           inkscape:connector-curvature="0" />
        <path
           style="opacity:0.12000002;fill:#000000;fill-opacity:1;stroke:none;stroke-width:0.065;stroke-linecap:butt;stroke-linejoin:miter;stroke-miterlimit:4;stroke-dasharray:none;stroke-opacity:1"
           d="m 92.901808,104.5363 c -0.530588,1.74976 0.03307,2.33474 0.03307,2.33474 0.225509,0.40926 1.002006,0.71003 1.002006,0.71003 0.843568,0.40926 1.002522,0.91881 1.002522,0.91881 0,0 -0.0735,-0.67326 -0.989086,-1.10639 0,0 -0.759339,-0.29395 -0.979784,-0.69402 0,0 -0.527844,-0.54348 -0.06873,-2.16317 z m 2.037601,3.96358 c 0.129,-0.62657 0.120023,-1.10415 0.04754,-1.46503 0.06932,0.37872 0.07678,0.86119 -0.04754,1.46503 z"
           id="path4521-0"
           inkscape:connector-curvature="0" />
      </g>
      <g
         transform="rotate(177.88603,102.47139,107.76559)"
         id="g4793">
        <g
           id="g4763"
           transform="translate(11.575521,0.56223958)">
          <g
             transform="translate(10.210089,4.0707)"
             id="g4732">
            <path
               inkscape:connector-curvature="0"
               style="fill:#ffffff;fill-opacity:1;stroke:none;stroke-width:0.065;stroke-linecap:butt;stroke-linejoin:miter;stroke-miterlimit:4;stroke-dasharray:none;stroke-opacity:1"
               d="m 84.538061,99.501464 a 0.15355282,0.15355282 0 0 0 -0.153479,0.153479 0.15355282,0.15355282 0 0 0 5.29e-4,0.0088 c -1.404186,0.415357 -2.794664,1.603517 -2.794661,1.603517 -2.973377,2.55577 -1.603521,4.69429 -1.603521,4.69429 0.12528,-1.65373 1.912543,-2.06292 1.912543,-2.06292 2.012876,-0.48443 2.898532,-1.30328 2.898532,-1.30328 0.340905,-0.26988 0.602636,-0.53918 0.809255,-0.79685 a 0.15355283,0.15355283 0 0 0 0.08268,0.0243 0.15355283,0.15355283 0 0 0 0.153477,-0.154 0.15355283,0.15355283 0 0 0 -0.05323,-0.11575 c 0.575699,-0.84002 0.544672,-1.49655 0.544672,-1.49655 -0.02506,-0.451021 -0.785482,-0.517802 -0.785482,-0.517802 -0.278202,-0.03895 -0.573757,-0.01304 -0.872816,0.05064 a 0.15355282,0.15355282 0 0 0 -0.138493,-0.08785 z"
               id="path4517-3" />
            <path
               style="fill:#ffffff;fill-opacity:1;stroke:none;stroke-width:0.065;stroke-linecap:butt;stroke-linejoin:miter;stroke-miterlimit:4;stroke-dasharray:none;stroke-opacity:1"
               d="m 82.766298,100.22793 c -0.891786,-1.340638 -2.545432,-0.0354 -2.545432,-0.0354 0,0 0.685082,0.56697 1.216611,0.54334 0,0 0.283479,0.0768 1.328821,-0.5079 z"
               id="path4519-8"
               inkscape:connector-curvature="0" />
            <path
               style="fill:#ffffff;fill-opacity:1;stroke:none;stroke-width:0.065;stroke-linecap:butt;stroke-linejoin:miter;stroke-miterlimit:4;stroke-dasharray:none;stroke-opacity:1"
               d="m 79.535934,105.52706 c 0,0 0.225507,0.99391 1.394811,1.72055 0,0 0.977206,0.49278 0.56795,2.48059 0,0 -0.158692,-0.50948 -1.002261,-0.91874 0,0 -0.776752,-0.30067 -1.002261,-0.70993 0,0 -0.618061,-0.63477 0.04176,-2.57247 z"
               id="path4521-1"
               inkscape:connector-curvature="0" />
            <path
               style="fill:#ffffff;fill-opacity:1;stroke:none;stroke-width:0.065;stroke-linecap:butt;stroke-linejoin:miter;stroke-miterlimit:4;stroke-dasharray:none;stroke-opacity:1"
               d="m 81.165807,104.43291 c 0,0 0.767762,0.54925 -0.141743,1.62412 0,0 -0.466563,-0.49019 -0.265763,-0.92132 0,0 0.354353,-0.45475 0.407506,-0.7028 z"
               id="path4534-8"
               inkscape:connector-curvature="0" />
            <path
               style="fill:#ffffff;fill-opacity:1;stroke:none;stroke-width:0.065;stroke-linecap:butt;stroke-linejoin:miter;stroke-miterlimit:4;stroke-dasharray:none;stroke-opacity:1"
               d="m 79.811555,103.18845 c 0,0 -0.860274,-0.42596 -1.31129,1.05655 0,0 1.039843,0.30903 1.31129,-1.05655 z"
               id="path4536-9"
               inkscape:connector-curvature="0" />
            <path
               style="fill:#ffffff;fill-opacity:1;stroke:none;stroke-width:0.065;stroke-linecap:butt;stroke-linejoin:miter;stroke-miterlimit:4;stroke-dasharray:none;stroke-opacity:1"
               d="m 84.756041,102.83348 c 0,0 1.081606,0.8561 -0.726638,2.27597 0,0 -0.559595,-1.06908 -0.07934,-1.50339 0,0 0.689046,-0.59301 0.805978,-0.77258 z"
               id="path4538-2"
               inkscape:connector-curvature="0" />
          </g>
          <path
             inkscape:connector-curvature="0"
             id="path4517-9-3"
             d="m 94.74815,103.57215 a 0.15355283,0.15355283 0 0 0 -0.153479,0.15348 0.15355283,0.15355283 0 0 0 5.18e-4,0.009 c -1.404186,0.41535 -2.794664,1.60351 -2.794661,1.60351 -2.973377,2.55578 -1.603521,4.6943 -1.603521,4.6943 2.89e-4,-0.004 0.0012,-0.007 0.0016,-0.0109 -0.241134,-0.73719 -0.418531,-2.39614 1.78077,-4.28656 0,0 2.288495,-1.96295 3.958933,-1.72909 0,0 0.37165,0.0359 0.60358,0.21135 0.002,-0.046 0.003,-0.0899 0.003,-0.0899 -0.0251,-0.45101 -0.785483,-0.51779 -0.785483,-0.51779 -0.278201,-0.0389 -0.573757,-0.013 -0.872815,0.0506 a 0.15355283,0.15355283 0 0 0 -0.138494,-0.0878 z"
             style="opacity:0.12000002;fill:#000000;fill-opacity:1;stroke:none;stroke-width:0.065;stroke-linecap:butt;stroke-linejoin:miter;stroke-miterlimit:4;stroke-dasharray:none;stroke-opacity:1" />
          <path
             inkscape:connector-curvature="0"
             id="path4521-0-3"
             d="m 89.671444,109.83539 c -0.530588,1.74976 0.03307,2.33474 0.03307,2.33474 0.225509,0.40926 1.002006,0.71003 1.002006,0.71003 0.843568,0.40926 1.002522,0.91881 1.002522,0.91881 0,0 -0.0735,-0.67326 -0.989086,-1.10639 0,0 -0.759339,-0.29395 -0.979784,-0.69402 0,0 -0.527844,-0.54348 -0.06873,-2.16317 z m 2.037601,3.96358 c 0.129,-0.62657 0.120023,-1.10415 0.04754,-1.46503 0.06932,0.37872 0.07678,0.86119 -0.04754,1.46503 z"
             style="opacity:0.12000002;fill:#000000;fill-opacity:1;stroke:none;stroke-width:0.065;stroke-linecap:butt;stroke-linejoin:miter;stroke-miterlimit:4;stroke-dasharray:none;stroke-opacity:1" />
        </g>
      </g>
    </g>
    <text
       xml:space="preserve"
       style="font-style:normal;font-variant:normal;font-weight:normal;font-stretch:normal;font-size:26.84461975px;line-height:1.25;font-family:Kavivanar;-inkscape-font-specification:Kavivanar;letter-spacing:0px;word-spacing:0px;fill:#ffffff;fill-opacity:1;stroke:none;stroke-width:0.41944718"
       x="106.60633"
       y="74.127556"
       id="text4556"><tspan
         sodipodi:role="line"
         id="tspan4554"
         x="106.60633"
         y="74.127556"
         style="font-style:normal;font-variant:normal;font-weight:normal;font-stretch:normal;font-size:27.14570808px;font-family:Kavivanar;-inkscape-font-specification:Kavivanar;fill:#ffffff;stroke-width:0.41944718">KOIcode</tspan></text>
  </g>
</svg>
